<?xml version="1.0" encoding="utf-8"?>
<!-- Generator: Adobe Illustrator 23.1.0, SVG Export Plug-In . SVG Version: 6.00 Build 0)  -->
<svg version="1.1" id="Layer_1" xmlns="http://www.w3.org/2000/svg" x="0px" y="0px"
	 viewBox="0 0 850.03 227.09" style="enable-background:new 0 0 850.03 227.09;" xml:space="preserve">
<style type="text/css">
	.st0{fill:#FBFBFB;}
</style>
<g id="Isolation_Mode_2_">
	<g>
		<path class="st0" d="M221.1,123.12c-11.29,2.96-27.32,32.15-24.44,67.16c0,0,20.22,27.26,45.2,21.66
			c12.4-2.78,26.88-22.37,26.74-50.54C268.45,133.22,239.89,118.2,221.1,123.12z M247.92,171.87
			c-4.34,15.75-11.27,27.02-22.41,28.71c-11.15,1.69-12.13-13.47-12.13-13.47c-0.66-31.46,21.58-55.46,30.66-51.88
			C253.13,138.81,252.26,156.11,247.92,171.87z"/>
		<g>
			<path class="st0" d="M141.47,189.36l-22.45-23.63c0,0,17.6-46.95,55.24-54.55c0,0,10.41,5.09,11.11,15.27
				s-13.15,30.43-13.15,30.43s-12.35,16.45-36.1,23.21l3.82-16.4c0,0,27.7-7.46,31.98-43.16
				C171.92,120.52,133.02,144.8,141.47,189.36z"/>
			<path class="st0" d="M148.4,171.42c0,0-2.43,15.42-0.01,21.93c2.42,6.51,8.51,13,8.51,13s24.85-7.79,28.24-50.25
				c0,0-14.88,2.48-31.82,16.63l12.39-20.83c0,0,16.28-8.93,23.72-3.12s14.37,26.39,2.41,55.26c-11.95,28.87-54.29,5.77-54.29,5.77
				l-4.29-40.35L148.4,171.42z"/>
		</g>
		<g>
			<path class="st0" d="M22.72,132.01l-17.19-7.04c-4.25,11.13-9.43,33.79-1.1,68.46c1.56,6.48,4.41,12.21,8.15,16.81
				c13.19-1.15,16.03-6.97,16.03-6.97c-2.67-4.28-4.1-8.48-4.1-8.48C16.84,172.55,18.26,147,22.72,132.01z"/>
			<path class="st0" d="M16.89,199.66c0,0,4.48-68.69,23-95.78c0,0,17.03-3.14,26.59,16.88S53,205.16,53,205.16l-16.69-3.23
				c0,0,10.16-77,6.87-84.85c-3.29-7.85-20.89,37.36-17.47,87.25L16.89,199.66z"/>
			<path class="st0" d="M119.72,163.68c-1.97,7.96-19.23,37.93-23.98,17.09c-1.21-5.3,5.43-20.94,9.1-26.8
				c3.48-5.56-1.53-19.33-3.91-23.81v0c-1.54-2.73-5.37-2.47-9.32-1.24c-8.4,2.61-14.11,12.11-19.43,20.49
				c-2.86,4.51-7.59,13.73-10.26,21.22L53,204.17c12.1-21.83,28.58-39.37,37.48-47.21c-22.19,42.5,6.25,46.23,6.25,46.23
				c18.29,1.02,34.4-32.69,34.4-32.69C131.28,170.17,119.72,163.68,119.72,163.68z"/>
		</g>
		<path class="st0" d="M545.62,188c4.63,10.36,16.77,23.48,8.06,25.37c-13.64,2.96-19.18-14.84-19.18-14.84
			c-9.22-29.08,4.98-67.79,15.04-68.25c7.99-0.37,6.47,17.13-0.36,26.86c0.34,0.15,0.68,0.29,1.01,0.43
			c7.91,3.35,20.46-1.37,24.12-9.34c0.09-0.19,0.13-0.3,0.13-0.33c-3.94-36.28-40.57-29.18-52.65-10.72
			c-5.9,9.01-15.01,28.76-9.29,59.91c2.68,14.61,15.63,24.95,31.9,25c8.31,0.03,17.28-1.45,24.82-6.2
			c13.91-8.77,3.92-25.43,1.12-35.16C561.91,179.27,550.31,183.21,545.62,188z"/>
		<path class="st0" d="M802.53,115.13c-11.29,2.96-27.32,32.15-24.44,67.16c0,0,20.22,27.26,45.2,21.66
			c12.4-2.78,26.88-22.37,26.74-50.54C849.89,125.24,821.32,110.21,802.53,115.13z M829.36,163.88
			c-4.34,15.75-11.27,27.02-22.41,28.71s-12.13-13.47-12.13-13.47c-0.66-31.46,21.58-55.46,30.66-51.88
			C834.57,130.82,833.7,148.12,829.36,163.88z"/>
		<g>
			<path class="st0" d="M722.05,187.77l-22.45-23.63c0,0,17.6-46.95,55.24-54.55c0,0,10.41,5.09,11.11,15.27
				c0.7,10.18-13.15,30.43-13.15,30.43s-12.35,16.45-36.1,23.21l3.82-16.4c0,0,27.7-7.46,31.98-43.16
				C752.51,118.93,713.6,143.21,722.05,187.77z"/>
			<path class="st0" d="M728.98,169.83c0,0-2.43,15.42-0.01,21.93c2.42,6.51,8.51,13,8.51,13s24.85-7.79,28.24-50.25
				c0,0-14.88,2.48-31.82,16.63l12.39-20.83c0,0,16.28-8.93,23.72-3.12c7.44,5.81,14.37,26.39,2.41,55.26
				c-11.95,28.87-54.29,5.77-54.29,5.77l-4.29-40.35L728.98,169.83z"/>
		</g>
		<g>
			<path class="st0" d="M602.86,131.75l-17.19-7.04c-4.25,11.13-9.43,33.79-1.1,68.46c1.56,6.48,4.41,12.21,8.15,16.81
				c13.19-1.15,16.03-6.97,16.03-6.97c-2.67-4.28-4.1-8.48-4.1-8.48C596.98,172.28,598.4,146.74,602.86,131.75z"/>
			<path class="st0" d="M597.03,199.4c0,0,4.48-68.69,23-95.78c0,0,17.03-3.14,26.59,16.88c9.56,20.02-13.48,84.39-13.48,84.39
				l-16.69-3.23c0,0,10.16-77,6.87-84.85c-3.29-7.85-20.89,37.36-17.47,87.25L597.03,199.4z"/>
			<path class="st0" d="M699.85,163.42c-1.97,7.96-19.23,37.93-23.98,17.09c-1.21-5.3,5.43-20.94,9.1-26.8
				c3.48-5.56-1.53-19.33-3.91-23.81v0c-1.54-2.73-5.37-2.47-9.32-1.24c-8.4,2.61-14.11,12.11-19.43,20.49
				c-2.86,4.51-7.59,13.73-10.26,21.22l-8.92,33.54c12.1-21.83,28.58-39.37,37.48-47.21c-22.19,42.5,6.25,46.23,6.25,46.23
				c18.29,1.02,34.4-32.69,34.4-32.69C711.42,169.91,699.85,163.42,699.85,163.42z"/>
		</g>
		<path class="st0" d="M497.17,158.67c-10.77-1.46-20.08-0.68-26.08,4.1c5.93,10.36,22.04,25.39,4.78,28.54
			c-17.41,3.18-27.86-14.84-27.86-14.84c-2.15-5.31-3.3-10.94-3.67-16.61c19.8-3.38,35.02-10.18,42.12-16.64
			c9.65-8.78,11.45-21.55,3.95-31.53c-13.31-17.7-42.77-11.59-55.33,3.41c-7.54,9.01-19.2,28.76-11.88,59.91
			c3.43,14.61,19.99,24.95,40.8,25c10.63,0.03,22.1-1.45,31.74-6.2C513.53,185.06,500.75,168.4,497.17,158.67z M470.57,108.23
			c10.23-0.37,8.27,17.13-0.47,26.86c-6.71,6.42-18.45,10.29-25.44,12.59C447.11,126.84,461.75,108.55,470.57,108.23z"/>
		<g>
			<path class="st0" d="M338.48,106.98c-7.28-3.32-14.88-3.82-22.02-2.85c0-0.01,0.01-0.01,0.01-0.02
				c-22.54,2.33-51.23,17.45-46.25,34.28c2.89,9.78,17.64,7.49,17.64,7.49c-1.63-5.17,0.28-10.81,3.77-15.87l0.04,0.05
				c0,0,16.84-23.86,42.33-15.88c14.77,4.62-5.14,52.1-27.48,49.4c-5.9-0.71-8.78-3.64-10.93-3.13c-1.67,0.4,1.19,9.31,1.93,10.71
				c2.8,5.33,14.25,22.46,38,3.18C351.27,161.55,365.43,119.25,338.48,106.98z"/>
			<path class="st0" d="M322.83,199.73c-23.28-2.07-25.04-21.78-24.35-32.07c0.48-5.01,1.37-10.01,2.84-14.86
				c2.16-7.12,5.06-12.2,7.97-19.42c0,0-19.32-9.75-27.93,9.38c-4.61,10.24-8.82,57.57,26.4,84.34
				C327.16,217.14,322.83,199.73,322.83,199.73z"/>
		</g>
		<path class="st0" d="M372.64,78.24c4.63,10.36,16.77,23.48,8.06,25.37c-13.64,2.96-19.18-14.84-19.18-14.84
			c-9.22-29.08,4.98-67.79,15.04-68.25c7.99-0.37,6.47,17.13-0.36,26.86c0.34,0.15,0.68,0.29,1.01,0.43
			c7.91,3.35,20.46-1.37,24.12-9.34c0.09-0.19,0.13-0.3,0.13-0.33c-3.94-36.28-40.57-29.18-52.65-10.72
			c-5.9,9.01-15.01,28.76-9.29,59.91c2.68,14.61,15.63,24.95,31.9,25c8.31,0.03,17.28-1.45,24.82-6.2
			c13.91-8.77,3.92-25.43,1.12-35.16C388.93,69.51,377.33,73.45,372.64,78.24z"/>
		<path class="st0" d="M341,61.01c-1.97,7.15-19.23,34.08-23.98,15.35c-1.21-4.76,5.43-18.82,9.1-24.08c3.48-5-1.53-17.37-3.91-21.4
			v0c-3.68-5.89-16.61,6.64-16.61,6.64l-7.28,7.28c-11.23,11.53-24.63,26.68-34.76,42.42c-1.62,2.52-4.45,3.11-5.62,1.14
			c-0.55-0.93-0.6-2.25-0.13-3.56c1.91-5.42,15.2-34.19,24.62-49.81l-15.97-11.17c-1.47,2.63-10.3,19.1-11.88,21.66
			c-10.72,17.32-14.85,30.92-2.5,54.24l4.48,7.57c4.67,6.54,13.64,4.7,19.75-4.86c11.45-17.9,21.62-29.73,32.47-36.52c0,0,0,0,0,0
			c-14.52,31.23,9.23,30.57,9.23,30.57c18.29,0.92,34.4-29.38,34.4-29.38C352.57,66.83,341,61.01,341,61.01z"/>
		<path class="st0" d="M509.16,27.98c1.13-25.82,40.69-32.49,61.43-25.21c7,2.46,5.93,11.79,4.16,16.97
			C571.33,29.76,554.95,40,554.95,40s16.89-5.5,18.08,18.88c0.98,20.08-16.96,45.6-36.9,57.36c-9.29,5.48-21,6.02-28.31-0.64
			c-3.25-2.96-6.97-8.98-7.72-15.27c-2.18-18.31,6.25-45,17.25-49.67c14.5-6.16,15.6,10.15,15.6,10.15s-18.54,2.69-23.59,37.32
			c-0.84,5.77,4.68,10.07,9.02,6.71c21.51-16.69,30.74-31.28,36.89-42.48c3.95-7.19,0.89-15.48-5.96-13.73
			c-2.54,0.65-6.34,1.59-9.84,2.99l-6.18-13.7c0,0,28.94-14.56,29.59-22.63c0.96-12.03-43.7,3.16-38.7,25.31
			C524.17,40.6,508.64,39.94,509.16,27.98z"/>
		<g>
			<path class="st0" d="M238.57,10.89c-6.59-4.54-13.98-6.36-21.18-6.66c0-0.01,0.01-0.01,0.01-0.02
				c-22.6-1.65-53.49,8.22-51.54,25.66c1.14,10.14,16.06,10.46,16.06,10.46c-0.7-5.37,2.16-10.59,6.49-14.96l0.03,0.06
				c0,0,20.75-20.54,44.46-8.23c13.74,7.14-14.18,50.39-35.7,43.83c-5.68-1.73-8.01-5.12-10.21-4.99c-1.72,0.1-0.45,9.38,0.02,10.88
				c1.83,5.74,10.1,24.61,36.86,9.78C241.62,66.86,262.95,27.68,238.57,10.89z"/>
			<path class="st0" d="M218.17,100.19c-21.2,0.73-20.71-20.29-18.56-32.79c1.42-5.88,3.41-11.7,6.18-17.14
				c3.37-6.63,7.12-11.13,11.24-17.72c0,0-17.32-12.98-29.14,4.35c-6.27,9.19-18.48,54.24,10.4,86.7l0.26,0.92
				c0.15-0.04,0.28-0.1,0.42-0.14c0.05,0.06,0.1,0.12,0.16,0.18c0,0-0.02-0.09-0.04-0.22C219.35,117.77,218.17,100.19,218.17,100.19
				z"/>
		</g>
		<path class="st0" d="M486.35,76.08C486.35,76.08,486.35,76.08,486.35,76.08c-3.65,2-7,1.21-8.74-5.47
			c-1.21-4.64,5.43-18.35,9.1-23.48c3.48-4.87-1.53-16.94-3.91-20.86h0c-6.31-9.71-16.61,6.48-16.61,6.48l-7.28-11.98
			c-4.36-7.19-25.74-10-31.75-0.79c-5.03,7.7-6.86,10.91-12,20.54c-9.88,18.52-10.84,39.14-2.5,52.88l4.48,7.38
			c4.47,7.36,12.62,5.92,19.75-4.74c11.6-17.33,21.62-28.99,32.47-35.6c0,0,0,0,0,0c-10.62,22.27-0.77,27.9,5.29,29.32
			C486.2,91.11,486.35,76.08,486.35,76.08z M424.15,81.2c-1.62,2.45-4.45,3.03-5.62,1.11c-0.55-0.9-0.6-2.19-0.13-3.47
			c2.56-7.08,11.94-31.03,27.88-50.52c2.05-2.51,5.12-2.77,6.3-0.53l6.33,12.05C447.68,51.09,434.28,65.86,424.15,81.2z"/>
		<path class="st0" d="M656.42,81.94C656.42,81.94,656.42,81.94,656.42,81.94c-3.65,2-7,1.21-8.74-5.47
			c-1.21-4.64,5.43-18.35,9.1-23.48c3.48-4.87-1.53-16.94-3.91-20.86h0c-6.31-9.71-16.61,6.48-16.61,6.48l-7.28-11.98
			c-4.36-7.19-25.74-10-31.75-0.79c-5.03,7.7-6.86,10.91-12,20.54c-9.88,18.52-10.84,39.14-2.5,52.88l4.48,7.38
			c4.47,7.36,12.62,5.92,19.75-4.74c11.6-17.33,21.62-28.99,32.47-35.6c0,0,0,0,0,0c-10.62,22.27-0.77,27.9,5.29,29.32
			C656.27,96.97,656.42,81.94,656.42,81.94z M594.22,87.07c-1.62,2.45-4.45,3.03-5.62,1.11c-0.55-0.9-0.6-2.19-0.13-3.47
			c2.56-7.08,11.94-31.03,27.88-50.52c2.05-2.51,5.12-2.77,6.3-0.53l6.33,12.05C617.75,56.95,604.35,71.72,594.22,87.07z"/>
		<path class="st0" d="M420.88,157.17c-11.91,27.2-34.56,39.63-40.34,39.59c-2.05-0.01-7.74-0.28-3.1-8.85
			c2.94-5.42,30.84-38.86,40.26-55.73l-15.97-12.07c0,0,0,0,0,0c0,0,0,0,0,0l0,0c0,0,0,0,0,0c-6.46,10.92-27.13,17.86-49,4.52
			c0,0-4.83,19.08,14.3,26.94c7.48,3.07,17.79-0.48,25.4-5.97c-6.2,11.15-37.47,35.46-42.3,48.39
			c-8.14,21.78,28.53,31.41,51.85,15.48c1.98-1.35,22.81-17.8,25.68-41.8C424.32,163.56,424.2,161.27,420.88,157.17z"/>
	</g>
</g>
</svg>
